<svg version="1" xmlns="http://www.w3.org/2000/svg" width="502.667" height="502.667" viewBox="0 0 377.000000 377.000000"><path d="M281.9 4.7c-1.3 2.1-2.7 4-3.1 4.1-.5.2-.6.7-.3 1.1.4.7-4.3 10.3-16 33.1-2.2 4.1-6.2 10.8-9 14.8-2.7 4.1-5.4 8.3-6 9.3-.5 1-1.3 1.9-1.7 1.9-1.4 0-.9 2.3.9 4.2 2 2.2 1.1 3.5-1 1.3-.9-.8-2-1.5-2.6-1.5-.5 0-2.1-1.5-3.5-3.3-3.1-4.1-12-20.7-11-20.7.3 0 .1-.7-.6-1.5-1.5-1.8-4-11.5-4.4-16.9-.2-2.2-.7-4.1-1.3-4.3-1.5-.5-3.5 4.1-3.9 8.9-.1 2.3-.3 4.3-.4 4.3-.1 0-.3 2-.5 4.5s-.7 6.5-1 9c-.4 2.5-.8 6.1-1 8-.9 8.9-2.1 16.5-2.5 16.5-.1 0-.3 1.6-.4 3.5-.1 1.9-.8 4.6-1.6 6-.7 1.4-1.2 2.6-1.1 2.8.1.1-.5 2.7-1.4 5.7-.8 3-1.5 5.6-1.4 5.7.2.2-.3 1.2-.9 2.3-1 1.9-2.1 12.1-2.7 24.5-.1 3-.6 7.7-1 10.5-.4 2.7-.9 6.3-1.1 8-.9 6.3-1.1 33.1-.2 34.1.5.7.8 1.6.7 2-.4 1.4 1.3 10.8 2.1 11.9.4.5 1 1.7 1.3 2.7.5 1.3 0 1.5-2.6 1.1-4.5-.8-25.5-.8-29.9 0-2.1.4-5.4 1-7.4 1.3-2 .3-5.3 1.2-7.5 1.9-2.1.8-3.9 1.2-3.9 1 0-.2-1.6.3-3.5 1.1s-3.5 1.1-3.5.8c0-.4-.6-.2-1.3.4-.7.6-2.5 1.3-4 1.6-1.5.2-3.2.8-3.9 1.3-.7.4-1.7.8-2.3.8-1.2.1-6.5 2.2-13.5 5.3-1.4.7-3.6 1.6-5 2.2-6.8 2.8-33.7 17.6-35.8 19.7-.8.7-1.8 1.1-2.3.8-.5-.4-.9-.3-.9.2 0 2.3-16.1 6.5-21.9 5.8-1.7-.2-3.1.1-3.1.6 0 .6-.3.8-.8.5-.4-.2-4.1-.7-8.2-1-11.9-.9-17.4-1.7-18.7-2.8-.7-.5-1.7-.7-2.2-.4-.5.4-1.2.2-1.6-.4-.4-.6-1.1-.8-1.6-.5-.5.4-.9.1-.9-.6s-.3-1-.6-.7c-.3.4-2.4-.2-4.7-1.2-5-2.3-6.2-1.7-4.1 1.8 1.7 2.9 9.4 9.2 11.2 9.2.7 0 1.2.3 1.2.7 0 .5 3.4 3.3 7.6 6.3 4.2 3 8.1 6 8.7 6.5.7.6 5 4 9.7 7.5 4.7 3.5 9.1 7 9.8 7.7.7.7 1.8 1.3 2.3 1.3.6 0 .7.4.4 1-.3.5-.1 1 .4 1 .6 0 3.3 2.4 6 5.2 4.9 5.1 5 5.3 3.4 7.8-2.3 3.7-13.1 14-14.7 14-.8 0-1.6.3-1.8.7-.5 1.3-6.1 4-10.7 5.3-2.4.6-5.5 1.6-7 2.2-3.2 1.3-3.8 1.5-7.5 2.3-1.6.3-3.6.9-4.5 1.4-.9.4-5.8.7-10.8.7-5.1-.1-9.3.2-9.3.6 0 .4-.7.5-1.6.1-2.9-1.1.5 3.2 3.5 4.4 6.6 2.7 8.8 3.3 12.1 3.7 3.6.3 8.4 1.3 11 2.3 2 .8 4.1 1.3 6.3 1.5.9.1 1.7.6 1.7 1s.3.7.8.6c.4-.1 2.7.4 5.2 1.1 2.5.7 5.3 1.5 6.2 1.6 1 .2 2.3.7 2.9 1.1.6.3 2.5.8 4.2.9 5.4.5 16.3 4.8 17.9 7 .4.5.8.6.8.1s.7-.3 1.5.4 1.5.9 1.5.4.4-.4.8.1c1 1.5 5.8 3.7 17.7 8.1 1.1.4 3.3.9 5 1.1 1.6.3 3.7.9 4.6 1.4 1 .5 2.8.9 4.2.9 1.3 0 2.7.3 3.1.7.8.8 2.5 1.2 8.6 1.7 5.5.6 10 1.5 11.4 2.4 1.1.6 2.3 1 5.6 1.6.8.1 2.2.5 3 .8.8.3 3.5 1.1 6 1.6 2.5.6 5.9 1.4 7.5 1.8 1.7.4 4.4.8 6 .9 1.7.2 3 .4 3 .5 0 .3 9.7 1 13 1 10.1.1 25-1.2 25-2.1 0-.1.9-.3 2-.4 13.4-1.7 15.1-2 18.6-3.3 1.5-.6 2.9-.9 3.2-.6.5.5 11.8-4.2 16.2-6.8 3.6-2.1 7.6-4 9.1-4.3 2.5-.6 21-8.9 22.5-10.2.8-.7 2.1-1.3 2.8-1.3 1.5 0 3-1.2 10.3-8.3 6.3-6.1 11.6-15.7 12.3-22.6.2-2 .5-3.6.5-3.6.1 0 .3-5.4.4-11.9.2-7.8-.2-13.5-1.1-16.5-1.7-5.7-1.7-5.3 1.2-8.7 1.4-1.6 2.6-3.5 2.6-4.2.2-1.4.6-3.1.9-3.5.1-.1.3-1.2.4-2.4.2-1.3 1-3.1 1.9-4 .8-1 1.9-3 2.2-4.6.8-2.9 2.9-3.5 5.4-1.3 2.2 1.8 8.1 3.7 8.1 2.5 0-.5.3-.8.8-.7 1.2.3 5.5-1.4 7-2.8.7-.8 1-1.4.5-1.4-.4 0 0-.5 1-1.1.9-.5 1.7-1.4 1.7-1.9s.5-2.1 1.2-3.7c1.4-3.6 1.3-3.1 2.3-7.8.4-2.2 1-4.4 1.3-4.9.3-.6.7-1.9.8-3 .1-1.2.5-5 .8-8.6.4-3.6.9-8.8 1-11.6.2-2.8.9-6 1.4-7.1.6-1.1.8-2.3.5-2.7-.3-.3-.2-.6.3-.6s1-.8 1.1-1.8c0-.9.3-3.7.7-6.2.9-6.9 1.8-21 1.6-25.5-.1-2.2-.3-5.9-.4-8.2 0-2.4-.4-4.3-.8-4.3-.3 0-.4-.9-.1-2 .3-1.1.2-2.8-.2-3.7-.5-1-.9-2.7-1-3.8-.7-6.8-14.8-38.2-17.7-39.3-.4-.2-.8-.8-.8-1.3 0-1.1-7.6-12.6-9.7-14.7-.7-.7-1.3-1.6-1.3-2 0-.4-1.8-2.7-4-5.1-2.2-2.5-4-4.7-4-5 0-.4-1-1.7-2.3-3.1-8.1-8.9-14.3-17.7-15.2-21.8-.3-1-.9-3.5-1.4-5.7-2.6-11-3.3-30.3-1.2-34.3 1.1-2.1.6-5.2-.9-5.2-.5 0-1.9 1.7-3.1 3.7z"/><path d="M364 184.8c-1.5.5-4.9 4-5.1 5.1 0 .3-.2 1.5-.4 2.6-.7 3.3-1.8 11.9-1.9 13.7 0 1-.3 1.8-.6 1.8s-.6 1-.7 2.2c-.1 1.3-.3 3.2-.6 4.3-1.7 6.7-2.8 11-3.7 14.7-.6 2.4-1.3 5-1.7 5.8-.3.8-.7 1.9-.8 2.5-.8 3.3-6.1 17.6-7.8 21-1.1 2.2-2 4.2-2 4.5.2 2.2-11.8 26-17.6 35-2.3 3.6-4.4 7.3-4.7 8.2-.4 1-1 1.8-1.4 1.8-.5 0-1.1.8-1.4 1.8-.4 1-1.4 2.7-2.4 3.8-.9 1-3 3.7-4.7 5.9-1.6 2.2-3.4 4.5-4 5.2-.5.6-2.1 2.5-3.4 4.2-1.2 1.7-5.4 6.3-9.2 10.3-3.8 4-6.9 7.6-6.9 8 0 .5-.4.8-.9.8s-2.6 1.7-4.8 3.7c-5.8 5.6-11.4 10.4-15.9 13.7-2.1 1.7-4.1 3.3-4.4 3.7-.3.3-1.8 1.4-3.5 2.3-2.3 1.3-2.5 1.5-.7 1 2.2-.5 12.2-7 18.3-11.8 1.5-1.2 3.9-3 5.5-4.1 1.5-1.1 3.8-3 5-4.2 1.3-1.3 2.6-2.3 2.9-2.3 3.3 0 39.6-39.3 41.8-45.3.3-.9 1-1.7 1.5-1.7s1.7-1.6 2.8-3.5c1-1.9 2.2-3.5 2.6-3.5.5 0 .8-.4.8-.9s2.6-5.1 5.9-10.2c3.2-5.2 6.1-10.4 6.5-11.7.4-1.2 1.1-2.2 1.6-2.2s1.1-1.3 1.5-3c.4-1.7 1.1-3 1.6-3s.8-.3.7-.8c0-.4 1.6-4.3 3.7-8.7 2-4.4 3.8-8.5 3.9-9 .1-.6.5-1.5.8-2.1.4-.6 1.6-3.7 2.8-7 1.2-3.2 2.5-6.8 3-7.9 2.5-5.6 8.8-29.4 9.4-35.3.3-3.4-.1-4.6-2.1-6.7-1.4-1.4-2.8-2.6-3.2-2.6-2.2-.5-4.8-.5-6.1-.1z"/></svg>